<?xml version="1.0" standalone="no"?>
<!DOCTYPE svg PUBLIC "-//W3C//DTD SVG 20010904//EN"
 "http://www.w3.org/TR/2001/REC-SVG-20010904/DTD/svg10.dtd">
<svg version="1.0" xmlns="http://www.w3.org/2000/svg"
 width="700.000000pt" height="700.000000pt" viewBox="0 0 700.000000 700.000000"
 preserveAspectRatio="xMidYMid meet">
<metadata>
Created by potrace 1.14, written by Peter Selinger 2001-2017
</metadata>
<g transform="translate(0.000000,700.000000) scale(0.100000,-0.100000)"
fill="#000000" stroke="none">
<path d="M1934 6104 c-57 -20 -114 -72 -149 -135 -26 -47 -30 -64 -30 -134 0
-67 5 -88 27 -130 33 -64 80 -108 143 -137 l50 -23 1227 -5 1226 -5 -1310
-2095 c-720 -1152 -1321 -2117 -1336 -2145 -22 -42 -27 -63 -27 -130 0 -70 4
-87 30 -134 37 -66 93 -115 159 -138 48 -17 138 -18 1556 -18 1418 0 1508 1
1556 18 66 23 122 72 159 138 26 47 30 64 30 134 0 67 -5 88 -27 130 -33 64
-80 108 -143 137 l-50 23 -1227 5 -1226 5 1324 2119 c769 1230 1331 2139 1341
2168 33 102 -5 230 -90 304 -81 68 32 64 -1651 63 -1306 0 -1527 -3 -1562 -15z"/>
</g>
</svg>
